<?xml version="1.0" encoding="UTF-8"?>
<svg viewBox="0 0 361 74" version="1.1" xmlns="http://www.w3.org/2000/svg" xmlns:xlink="http://www.w3.org/1999/xlink">
    <!-- Generator: Sketch 53 (72520) - https://sketchapp.com -->
    <title>Artboard Copy 3</title>
    <desc>Created with Sketch.</desc>
    <g id="Artboard-Copy-3" stroke="none" stroke-width="1" fill="none" fill-rule="evenodd">
        <g id="Group-33-Copy">
            <path d="M69.4585,12.6563 L69.4585,38.0393 C69.4585,38.7423 69.5995,39.4053 69.8805,40.0263 C70.1615,40.6473 70.5425,41.1863 71.0225,41.6433 C71.5025,42.1003 72.0605,42.4573 72.6925,42.7153 C73.3255,42.9733 74.0055,43.1023 74.7315,43.1023 C75.1305,43.1023 75.5815,42.9903 76.0855,42.7683 C76.5895,42.5453 77.1045,42.2353 77.6325,41.8363 C78.1595,41.4383 78.6815,40.9693 79.1965,40.4303 C79.7115,39.8913 80.1685,39.3053 80.5675,38.6723 L80.5675,12.6563 L91.4665,12.6563 L91.4665,48.6563 L80.5675,48.6563 L80.5675,45.3173 C79.1145,46.5353 77.5845,47.5083 75.9795,48.2353 C74.3745,48.9603 72.7985,49.3243 71.2515,49.3243 C69.4705,49.3243 67.8065,49.0263 66.2595,48.4283 C64.7125,47.8303 63.3705,47.0223 62.2335,46.0023 C61.0965,44.9833 60.2005,43.7873 59.5445,42.4163 C58.8885,41.0453 58.5605,39.5863 58.5605,38.0393 L58.5605,12.6563 L69.4585,12.6563 Z M12.6914,24.5044 C12.6914,27.5514 12.9904,30.3634 13.5874,32.9424 C14.1854,35.5204 15.0764,37.7464 16.2594,39.6214 C17.4424,41.4964 18.9144,42.9734 20.6714,44.0514 C22.4294,45.1294 24.4684,45.6804 26.7894,45.7034 C29.0864,45.4454 31.1304,44.7724 32.9234,43.6824 C34.7164,42.5924 36.2284,41.1334 37.4594,39.3054 C38.6894,37.4774 39.6264,35.3204 40.2714,32.8364 C40.9164,30.3524 41.2384,27.5744 41.2384,24.5044 C41.2384,21.4804 40.9214,18.7154 40.2894,16.2074 C39.6564,13.6994 38.7364,11.5434 37.5294,9.7384 C36.3214,7.9334 34.8274,6.5274 33.0464,5.5194 C31.2654,4.5124 29.2264,4.0074 26.9294,4.0074 C24.6094,4.0074 22.5644,4.5124 20.7954,5.5194 C19.0244,6.5274 17.5374,7.9334 16.3304,9.7384 C15.1224,11.5434 14.2144,13.6994 13.6054,16.2074 C12.9954,18.7154 12.6914,21.4804 12.6914,24.5044 Z M53.6834,63.0004 C51.1054,63.0004 48.5564,62.7834 46.0374,62.3504 C43.5174,61.9164 41.0914,61.3304 38.7594,60.5924 C36.4274,59.8544 34.2074,58.9984 32.0974,58.0254 C29.9884,57.0534 28.0484,56.0274 26.2794,54.9494 C24.5094,53.8714 22.9394,52.7704 21.5684,51.6454 C20.1974,50.5204 19.0664,49.4414 18.1754,48.4104 C15.4804,47.6134 13.0194,46.4654 10.7934,44.9654 C8.5664,43.4654 6.6494,41.6784 5.0454,39.6044 C3.4394,37.5294 2.1974,35.2154 1.3184,32.6604 C0.4394,30.1064 0.0004,27.3874 0.0004,24.5044 C0.0004,20.8244 0.6794,17.4784 2.0394,14.4664 C3.3984,11.4554 5.2854,8.8774 7.6994,6.7324 C10.1124,4.5874 12.9604,2.9304 16.2424,1.7574 C19.5234,0.5864 23.0854,0.0004 26.9294,0.0004 C29.4834,0.0004 31.9274,0.2754 34.2594,0.8264 C36.5914,1.3774 38.7534,2.1684 40.7464,3.1994 C42.7374,4.2314 44.5484,5.4794 46.1774,6.9434 C47.8064,8.4084 49.1954,10.0494 50.3434,11.8654 C51.4914,13.6814 52.3774,15.6564 52.9984,17.7894 C53.6184,19.9214 53.9294,22.1604 53.9294,24.5044 C53.9294,27.5274 53.4784,30.3464 52.5764,32.9594 C51.6734,35.5724 50.3964,37.9164 48.7444,39.9904 C47.0914,42.0654 45.1054,43.8464 42.7854,45.3344 C40.4644,46.8224 37.8984,47.9304 35.0864,48.6564 C35.6954,50.0394 36.6094,51.4104 37.8284,52.7704 C39.0464,54.1284 40.4704,55.3414 42.0994,56.4084 C43.7284,57.4754 45.5324,58.3364 47.5134,58.9924 C49.4944,59.6494 51.5504,59.9774 53.6834,59.9774 L53.6834,63.0004 Z M119.4365,23.6607 C119.3425,22.6057 119.1145,21.6387 118.7505,20.7597 C118.3875,19.8807 117.9245,19.1247 117.3625,18.4927 C116.7995,17.8597 116.1435,17.3727 115.3935,17.0337 C114.6435,16.6937 113.8345,16.5237 112.9675,16.5237 C112.2875,16.5237 111.6195,16.6937 110.9635,17.0337 C110.3075,17.3727 109.7155,17.8537 109.1885,18.4747 C108.6615,19.0957 108.2155,19.8457 107.8525,20.7247 C107.4885,21.6037 107.2485,22.5827 107.1315,23.6607 L119.4365,23.6607 Z M114.8315,49.4657 C112.2765,49.4657 109.8735,48.9907 107.6235,48.0417 C105.3735,47.0927 103.4165,45.8147 101.7525,44.2097 C100.0885,42.6037 98.7695,40.7407 97.7975,38.6197 C96.8255,36.4987 96.3385,34.2547 96.3385,31.8877 C96.3385,29.0517 96.7835,26.4207 97.6745,23.9947 C98.5655,21.5687 99.8315,19.4647 101.4715,17.6837 C103.1115,15.9027 105.0755,14.5147 107.3605,13.5177 C109.6455,12.5217 112.1945,12.0237 115.0065,12.0237 C117.5145,12.0237 119.8115,12.4227 121.8975,13.2187 C123.9835,14.0157 125.7695,15.1057 127.2585,16.4887 C128.7475,17.8717 129.9005,19.4997 130.7215,21.3747 C131.5415,23.2507 131.9525,25.2547 131.9525,27.3877 L107.0265,27.3877 C107.1195,29.3797 107.4185,31.2777 107.9225,33.0827 C108.4265,34.8877 109.1005,36.4747 109.9445,37.8467 C110.7885,39.2177 111.7775,40.3067 112.9155,41.1157 C114.0515,41.9247 115.3115,42.3287 116.6945,42.3287 C117.8895,42.3287 119.0675,42.1237 120.2275,41.7137 C121.3875,41.3037 122.4595,40.7407 123.4445,40.0257 C124.4285,39.3107 125.2845,38.4787 126.0105,37.5297 C126.7365,36.5807 127.2645,35.5557 127.5925,34.4537 L133.1475,35.3327 C132.5845,37.2777 131.6885,39.1057 130.4575,40.8167 C129.2275,42.5277 127.7865,44.0277 126.1335,45.3167 C124.4815,46.6057 122.6825,47.6197 120.7375,48.3577 C118.7915,49.0967 116.8225,49.4657 114.8315,49.4657 Z M160.1885,20.2149 C159.6965,19.7929 159.2445,19.4299 158.8345,19.1249 C158.4245,18.8209 158.0205,18.5749 157.6225,18.3869 C157.2235,18.1989 156.8075,18.0649 156.3745,17.9829 C155.9395,17.9009 155.4545,17.8599 154.9155,17.8599 C154.1645,17.8599 153.4265,17.9829 152.7005,18.2289 C151.9735,18.4749 151.2935,18.8149 150.6615,19.2479 C150.0285,19.6819 149.4595,20.1859 148.9565,20.7599 C148.4515,21.3349 148.0595,21.9499 147.7785,22.6059 L147.7785,48.6569 L136.8795,48.6569 L136.8795,15.9259 L144.5085,11.9179 L147.7785,15.4339 C148.9735,14.1919 150.3035,13.1959 151.7685,12.4449 C153.2325,11.6949 154.7745,11.3199 156.3915,11.3199 C157.9615,11.3199 159.3795,11.6429 160.6455,12.2869 C161.9115,12.9319 163.0125,13.6409 163.9505,14.4139 L160.1885,20.2149 Z M171.4805,57.1646 C171.7145,57.2816 172.0255,57.4346 172.4125,57.6216 C172.7985,57.8096 173.2205,57.9846 173.6775,58.1486 C174.1345,58.3126 174.6215,58.4536 175.1365,58.5706 C175.6515,58.6876 176.1675,58.7466 176.6835,58.7466 C177.1055,58.7466 177.5275,58.5006 177.9495,58.0086 C178.3715,57.5166 178.7695,56.9416 179.1445,56.2856 C179.5195,55.6296 179.8535,54.9726 180.1465,54.3166 C180.4395,53.6606 180.6565,53.1796 180.7965,52.8756 L183.9255,46.0906 L166.3825,12.6566 L177.9145,12.6566 L189.2695,34.2076 L199.3245,12.6566 L207.0235,12.6566 L187.1255,56.0046 C186.4685,57.4106 185.6365,58.6876 184.6285,59.8366 C183.6215,60.9846 182.5195,61.9636 181.3245,62.7716 C180.1285,63.5806 178.8805,64.2076 177.5805,64.6526 C176.2795,65.0986 174.9965,65.3206 173.7305,65.3206 C172.6755,65.3206 171.7035,65.1976 170.8125,64.9516 C169.9215,64.7056 169.1475,64.3366 168.4925,63.8446 L171.4805,57.1646 Z M251.7935,23.6607 C251.6995,22.6057 251.4715,21.6387 251.1075,20.7597 C250.7445,19.8807 250.2815,19.1247 249.7195,18.4927 C249.1565,17.8597 248.5005,17.3727 247.7505,17.0337 C247.0005,16.6937 246.1915,16.5237 245.3245,16.5237 C244.6455,16.5237 243.9775,16.6937 243.3205,17.0337 C242.6645,17.3727 242.0725,17.8537 241.5455,18.4747 C241.0185,19.0957 240.5725,19.8457 240.2095,20.7247 C239.8465,21.6037 239.6055,22.5827 239.4885,23.6607 L251.7935,23.6607 Z M247.1885,49.4657 C244.6335,49.4657 242.2305,48.9907 239.9805,48.0417 C237.7305,47.0927 235.7735,45.8147 234.1095,44.2097 C232.4455,42.6037 231.1275,40.7407 230.1545,38.6197 C229.1825,36.4987 228.6955,34.2547 228.6955,31.8877 C228.6955,29.0517 229.1415,26.4207 230.0315,23.9947 C230.9225,21.5687 232.1885,19.4647 233.8285,17.6837 C235.4695,15.9027 237.4325,14.5147 239.7175,13.5177 C242.0025,12.5217 244.5515,12.0237 247.3635,12.0237 C249.8715,12.0237 252.1685,12.4227 254.2545,13.2187 C256.3405,14.0157 258.1275,15.1057 259.6155,16.4887 C261.1045,17.8717 262.2585,19.4997 263.0785,21.3747 C263.8985,23.2507 264.3095,25.2547 264.3095,27.3877 L239.3835,27.3877 C239.4775,29.3797 239.7755,31.2777 240.2795,33.0827 C240.7835,34.8877 241.4575,36.4747 242.3015,37.8467 C243.1455,39.2177 244.1355,40.3067 245.2725,41.1157 C246.4085,41.9247 247.6685,42.3287 249.0515,42.3287 C250.2465,42.3287 251.4245,42.1237 252.5845,41.7137 C253.7445,41.3037 254.8165,40.7407 255.8015,40.0257 C256.7855,39.3107 257.6415,38.4787 258.3675,37.5297 C259.0945,36.5807 259.6215,35.5557 259.9495,34.4537 L265.5045,35.3327 C264.9415,37.2777 264.0455,39.1057 262.8145,40.8167 C261.5845,42.5277 260.1435,44.0277 258.4905,45.3167 C256.8385,46.6057 255.0395,47.6197 253.0945,48.3577 C251.1485,49.0967 249.1805,49.4657 247.1885,49.4657 Z M291.5454,20.2149 C291.0534,19.7929 290.6024,19.4299 290.1914,19.1249 C289.7814,18.8209 289.3774,18.5749 288.9794,18.3869 C288.5804,18.1989 288.1644,18.0649 287.7314,17.9829 C287.2974,17.9009 286.8114,17.8599 286.2724,17.8599 C285.5224,17.8599 284.7834,17.9829 284.0574,18.2289 C283.3304,18.4749 282.6504,18.8149 282.0184,19.2479 C281.3854,19.6819 280.8164,20.1859 280.3134,20.7599 C279.8094,21.3349 279.4164,21.9499 279.1354,22.6059 L279.1354,48.6569 L268.2364,48.6569 L268.2364,15.9259 L275.8654,11.9179 L279.1354,15.4339 C280.3304,14.1919 281.6604,13.1959 283.1254,12.4449 C284.5904,11.6949 286.1314,11.3199 287.7484,11.3199 C289.3184,11.3199 290.7364,11.6429 292.0024,12.2869 C293.2684,12.9319 294.3694,13.6409 295.3074,14.4139 L291.5454,20.2149 Z M300.9341,38.6021 C301.5671,40.5711 302.4751,42.1001 303.6591,43.1901 C304.8421,44.2801 306.3251,44.8251 308.1061,44.8251 C308.8561,44.8251 309.5411,44.7311 310.1631,44.5431 C310.7841,44.3561 311.3231,44.0921 311.7801,43.7521 C312.2371,43.4131 312.5881,43.0201 312.8341,42.5751 C313.0801,42.1291 313.2041,41.6491 313.2041,41.1331 C313.2041,40.2891 313.0451,39.5341 312.7291,38.8661 C312.4131,38.1981 311.9731,37.5941 311.4111,37.0551 C310.8481,36.5161 310.1801,36.0181 309.4071,35.5611 C308.6331,35.1041 307.8011,34.6761 306.9111,34.2781 C305.4811,33.6451 304.0631,32.9591 302.6571,32.2211 C301.2501,31.4831 299.9851,30.6391 298.8601,29.6901 C297.7351,28.7411 296.8271,27.6571 296.1351,26.4381 C295.4441,25.2191 295.0981,23.8131 295.0981,22.2191 C295.0981,20.6951 295.4141,19.3071 296.0471,18.0531 C296.6801,16.7991 297.5711,15.7271 298.7191,14.8361 C299.8681,13.9451 301.2391,13.2541 302.8321,12.7621 C304.4261,12.2691 306.1841,12.0231 308.1061,12.0231 C309.8641,12.0231 311.4221,12.1871 312.7821,12.5161 C314.1411,12.8441 315.3361,13.3121 316.3681,13.9221 C317.3991,14.5321 318.3131,15.2751 319.1101,16.1541 C319.9071,17.0331 320.6211,18.0231 321.2541,19.1251 L314.9261,21.3051 C314.5981,20.1571 314.2001,19.2661 313.7311,18.6331 C313.2621,18.0001 312.7701,17.5251 312.2541,17.2091 C311.7391,16.8931 311.2351,16.6991 310.7431,16.6291 C310.2501,16.5591 309.8171,16.5231 309.4421,16.5231 C308.7621,16.5231 308.1181,16.6001 307.5081,16.7521 C306.8991,16.9051 306.3601,17.1211 305.8911,17.4021 C305.4221,17.6841 305.0471,18.0301 304.7661,18.4391 C304.4851,18.8501 304.3441,19.3241 304.3441,19.8631 C304.3441,20.5431 304.5201,21.1871 304.8721,21.7971 C305.2231,22.4071 305.7151,22.9751 306.3481,23.5021 C306.9811,24.0301 307.7251,24.5281 308.5801,24.9971 C309.4361,25.4651 310.3681,25.9111 311.3751,26.3321 C312.8991,26.9651 314.3811,27.6681 315.8231,28.4421 C317.2641,29.2151 318.5471,30.0881 319.6721,31.0611 C320.7971,32.0341 321.7001,33.1121 322.3791,34.2951 C323.0591,35.4791 323.3991,36.7971 323.3991,38.2501 C323.3991,39.8211 323.1411,41.2861 322.6251,42.6451 C322.1101,44.0041 321.2721,45.1881 320.1121,46.1961 C318.9521,47.2041 317.4521,48.0001 315.6121,48.5861 C313.7721,49.1711 311.5391,49.4651 308.9141,49.4651 C306.6641,49.4651 304.7601,49.2061 303.2021,48.6921 C301.6431,48.1761 300.3251,47.5141 299.2471,46.7061 C298.1681,45.8971 297.2781,44.9891 296.5751,43.9811 C295.8721,42.9731 295.2501,41.9771 294.7111,40.9931 L300.9341,38.6021 Z M348.4858,23.6607 C348.3918,22.6057 348.1638,21.6387 347.7998,20.7597 C347.4368,19.8807 346.9738,19.1247 346.4118,18.4927 C345.8488,17.8597 345.1928,17.3727 344.4428,17.0337 C343.6928,16.6937 342.8838,16.5237 342.0168,16.5237 C341.3378,16.5237 340.6698,16.6937 340.0128,17.0337 C339.3568,17.3727 338.7648,17.8537 338.2378,18.4747 C337.7108,19.0957 337.2648,19.8457 336.9018,20.7247 C336.5388,21.6037 336.2978,22.5827 336.1808,23.6607 L348.4858,23.6607 Z M343.8808,49.4657 C341.3258,49.4657 338.9228,48.9907 336.6728,48.0417 C334.4228,47.0927 332.4658,45.8147 330.8018,44.2097 C329.1378,42.6037 327.8198,40.7407 326.8468,38.6197 C325.8748,36.4987 325.3878,34.2547 325.3878,31.8877 C325.3878,29.0517 325.8338,26.4207 326.7238,23.9947 C327.6148,21.5687 328.8808,19.4647 330.5208,17.6837 C332.1618,15.9027 334.1248,14.5147 336.4098,13.5177 C338.6948,12.5217 341.2438,12.0237 344.0558,12.0237 C346.5638,12.0237 348.8608,12.4227 350.9468,13.2187 C353.0328,14.0157 354.8198,15.1057 356.3078,16.4887 C357.7968,17.8717 358.9508,19.4997 359.7708,21.3747 C360.5908,23.2507 361.0018,25.2547 361.0018,27.3877 L336.0758,27.3877 C336.1698,29.3797 336.4678,31.2777 336.9718,33.0827 C337.4758,34.8877 338.1498,36.4747 338.9938,37.8467 C339.8378,39.2177 340.8278,40.3067 341.9648,41.1157 C343.1008,41.9247 344.3608,42.3287 345.7438,42.3287 C346.9388,42.3287 348.1168,42.1237 349.2768,41.7137 C350.4368,41.3037 351.5088,40.7407 352.4938,40.0257 C353.4778,39.3107 354.3338,38.4787 355.0598,37.5297 C355.7868,36.5807 356.3138,35.5557 356.6418,34.4537 L362.1968,35.3327 C361.6338,37.2777 360.7378,39.1057 359.5068,40.8167 C358.2768,42.5277 356.8358,44.0277 355.1828,45.3167 C353.5308,46.6057 351.7318,47.6197 349.7868,48.3577 C347.8408,49.0967 345.8728,49.4657 343.8808,49.4657 Z M222.8892,12.6563 L230.3422,12.6563 L212.6232,49.4653 L207.6662,49.4653 L201.8402,37.1673 L207.5052,24.8263 L212.2012,34.5943 L222.8892,12.6563 Z" id="Fill-4" fill="#F1F7F8"></path>
            <g id="Group" transform="translate(290.000000, 56.000000)">
                <g id="Group-4" transform="translate(48.000000, 0.000000)">
                    <path d="M9.022,16.8052 C4.886,16.8052 1.522,13.4412 1.522,9.3052 C1.522,5.1692 4.886,1.8052 9.022,1.8052 C13.158,1.8052 16.522,5.1692 16.522,9.3052 C16.522,13.4412 13.158,16.8052 9.022,16.8052" id="Fill-19" fill="#B98FCC"></path>
                    <path d="M9.022,0.8052 C4.328,0.8052 0.522,4.6112 0.522,9.3052 C0.522,13.9992 4.328,17.8052 9.022,17.8052 C13.716,17.8052 17.522,13.9992 17.522,9.3052 C17.522,4.6112 13.716,0.8052 9.022,0.8052 M9.022,2.8052 C12.606,2.8052 15.522,5.7212 15.522,9.3052 C15.522,12.8892 12.606,15.8052 9.022,15.8052 C5.438,15.8052 2.522,12.8892 2.522,9.3052 C2.522,5.7212 5.438,2.8052 9.022,2.8052" id="Fill-21" fill="#A771C0"></path>
                </g>
                <g id="Group-3" transform="translate(24.000000, 0.000000)">
                    <path d="M8.772,16.8052 C4.636,16.8052 1.272,13.4412 1.272,9.3052 C1.272,5.1692 4.636,1.8052 8.772,1.8052 C12.908,1.8052 16.272,5.1692 16.272,9.3052 C16.272,13.4412 12.908,16.8052 8.772,16.8052" id="Fill-23" fill="#DF796F"></path>
                    <path d="M8.772,0.8052 C4.078,0.8052 0.272,4.6112 0.272,9.3052 C0.272,13.9992 4.078,17.8052 8.772,17.8052 C13.466,17.8052 17.272,13.9992 17.272,9.3052 C17.272,4.6112 13.466,0.8052 8.772,0.8052 M8.772,2.8052 C12.356,2.8052 15.272,5.7212 15.272,9.3052 C15.272,12.8892 12.356,15.8052 8.772,15.8052 C5.188,15.8052 2.272,12.8892 2.272,9.3052 C2.272,5.7212 5.188,2.8052 8.772,2.8052" id="Fill-25" fill="#D75242"></path>
                </g>
                <g id="Group-2">
                    <path d="M8.522,16.8052 C4.386,16.8052 1.022,13.4412 1.022,9.3052 C1.022,5.1692 4.386,1.8052 8.522,1.8052 C12.658,1.8052 16.022,5.1692 16.022,9.3052 C16.022,13.4412 12.658,16.8052 8.522,16.8052" id="Fill-27" fill="#70B864"></path>
                    <path d="M8.522,0.8052 C3.828,0.8052 0.022,4.6112 0.022,9.3052 C0.022,13.9992 3.828,17.8052 8.522,17.8052 C13.216,17.8052 17.022,13.9992 17.022,9.3052 C17.022,4.6112 13.216,0.8052 8.522,0.8052 M8.522,2.8052 C12.106,2.8052 15.022,5.7212 15.022,9.3052 C15.022,12.8892 12.106,15.8052 8.522,15.8052 C4.938,15.8052 2.022,12.8892 2.022,9.3052 C2.022,5.7212 4.938,2.8052 8.522,2.8052" id="Fill-29" fill="#43A532"></path>
                </g>
            </g>
        </g>
    </g>
</svg>